<svg width="25" height="25" viewBox="0 0 25 25" fill="none" xmlns="http://www.w3.org/2000/svg">
<path fill-rule="evenodd" clip-rule="evenodd" d="M13.8583 2.49042C18.7705 2.49042 22.7526 6.47251 22.7526 11.3847C22.7526 16.2968 18.7705 20.2789 13.8583 20.2789C11.4552 20.2789 9.27459 19.3258 7.67401 17.777C7.64506 17.7381 7.61291 17.7007 7.57756 17.6654C7.54222 17.63 7.50488 17.5979 7.46593 17.5689C5.91714 15.9684 4.96407 13.7878 4.96407 11.3847C4.96407 6.47251 8.94617 2.49042 13.8583 2.49042ZM5.48011 18.3486C3.90901 16.4605 2.96407 14.033 2.96407 11.3847C2.96407 5.36794 7.8416 0.490417 13.8583 0.490417C19.8751 0.490417 24.7526 5.36794 24.7526 11.3847C24.7526 17.4014 19.8751 22.2789 13.8583 22.2789C11.21 22.2789 8.78243 21.334 6.89432 19.7628L2.19756 24.4596C1.80703 24.8501 1.17387 24.8501 0.783342 24.4596C0.392818 24.0691 0.392818 23.4359 0.783342 23.0454L5.48011 18.3486ZM18.5685 11.3847C18.5685 11.937 18.1208 12.3847 17.5685 12.3847H14.8586V15.095C14.8586 15.6473 14.4109 16.095 13.8586 16.095C13.3063 16.095 12.8586 15.6473 12.8586 15.095V12.3847H10.1478C9.59555 12.3847 9.14784 11.937 9.14784 11.3847C9.14784 10.8324 9.59555 10.3847 10.1478 10.3847H12.8586V7.67432C12.8586 7.12203 13.3063 6.67432 13.8586 6.67432C14.4109 6.67432 14.8586 7.12203 14.8586 7.67432V10.3847H17.5685C18.1208 10.3847 18.5685 10.8324 18.5685 11.3847Z" fill="#1C8B6A"/>
</svg>
