<svg width="25" height="25" viewBox="0 0 25 25" fill="none" xmlns="http://www.w3.org/2000/svg">
<path fill-rule="evenodd" clip-rule="evenodd" d="M11.3828 2.48859C6.47065 2.48859 2.48856 6.47068 2.48856 11.3828C2.48856 16.295 6.47065 20.2771 11.3828 20.2771C13.7859 20.2771 15.9664 19.3241 17.567 17.7753C17.596 17.7363 17.6281 17.699 17.6635 17.6636C17.6989 17.6282 17.7363 17.596 17.7753 17.567C19.324 15.9665 20.2771 13.7859 20.2771 11.3828C20.2771 6.47068 16.295 2.48859 11.3828 2.48859ZM11.3828 22.2771C14.0311 22.2771 16.4587 21.3322 18.3468 19.761L23.0435 24.4578C23.434 24.8483 24.0672 24.8483 24.4577 24.4578C24.8483 24.0673 24.8483 23.4341 24.4577 23.0436L19.761 18.3468C21.3321 16.4587 22.2771 14.0311 22.2771 11.3828C22.2771 5.36611 17.3995 0.488586 11.3828 0.488586C5.36608 0.488586 0.488556 5.36611 0.488556 11.3828C0.488556 17.3996 5.36608 22.2771 11.3828 22.2771ZM7.67245 10.3826C7.12017 10.3826 6.67245 10.8303 6.67245 11.3826C6.67245 11.9349 7.12017 12.3826 7.67245 12.3826H15.0931C15.6454 12.3826 16.0931 11.9349 16.0931 11.3826C16.0931 10.8303 15.6454 10.3826 15.0931 10.3826H7.67245Z" fill="#1C8B6A"/>
</svg>
